<mxfile host="app.diagrams.net" modified="2024-05-16T06:13:38.858Z" agent="Mozilla/5.0 (Windows NT 10.0; Win64; x64) AppleWebKit/537.36 (KHTML, like Gecko) Chrome/124.0.0.0 Safari/537.36" etag="fe7R74nAlM1jnVc-0zzI" version="24.4.2" type="github">
  <diagram id="-nUlbiPWIa_YUagmwYu6" name="第 1 页">
    <mxGraphModel dx="2074" dy="1098" grid="1" gridSize="10" guides="1" tooltips="1" connect="1" arrows="1" fold="1" page="1" pageScale="1" pageWidth="1200" pageHeight="1920" math="0" shadow="0">
      <root>
        <mxCell id="0" />
        <mxCell id="1" parent="0" />
        <mxCell id="xfbAxuXr3Si1YzYXhxK_-104" value="" style="shape=folder;fontStyle=1;spacingTop=10;tabWidth=40;tabHeight=14;tabPosition=left;html=1;fontSize=18;verticalAlign=top;fillColor=#fff2cc;strokeColor=#d6b656;" parent="1" vertex="1">
          <mxGeometry x="40" y="770" width="1118.5" height="170" as="geometry" />
        </mxCell>
        <mxCell id="xfbAxuXr3Si1YzYXhxK_-76" value="JCYW-01&#xa;静态参数组件" style="shape=module;align=center;spacingLeft=20;align=center;verticalAlign=middle;whiteSpace=wrap;labelPosition=center;verticalLabelPosition=middle;fillColor=#dae8fc;strokeColor=#6c8ebf;" parent="1" vertex="1">
          <mxGeometry x="78.5" y="840" width="110" height="50" as="geometry" />
        </mxCell>
        <mxCell id="xfbAxuXr3Si1YzYXhxK_-77" value="JCYW-02&#xa;动态参数组件" style="shape=module;align=center;spacingLeft=20;align=center;verticalAlign=middle;whiteSpace=wrap;labelPosition=center;verticalLabelPosition=middle;fillColor=#dae8fc;strokeColor=#6c8ebf;" parent="1" vertex="1">
          <mxGeometry x="214.5" y="840" width="110" height="50" as="geometry" />
        </mxCell>
        <mxCell id="xfbAxuXr3Si1YzYXhxK_-78" value="JCYW-03&#xa;数据缓存组件" style="shape=module;align=center;spacingLeft=20;align=center;verticalAlign=middle;whiteSpace=wrap;labelPosition=center;verticalLabelPosition=middle;fillColor=#dae8fc;strokeColor=#6c8ebf;" parent="1" vertex="1">
          <mxGeometry x="349.5" y="840" width="110" height="50" as="geometry" />
        </mxCell>
        <mxCell id="xfbAxuXr3Si1YzYXhxK_-79" value="JCYW-04&#xa;日志组件" style="shape=module;align=center;spacingLeft=20;align=center;verticalAlign=middle;whiteSpace=wrap;labelPosition=center;verticalLabelPosition=middle;fillColor=#dae8fc;strokeColor=#6c8ebf;" parent="1" vertex="1">
          <mxGeometry x="485.5" y="840" width="110" height="50" as="geometry" />
        </mxCell>
        <mxCell id="xfbAxuXr3Si1YzYXhxK_-81" value="JCYW-05&#xa;系统配置组件" style="shape=module;align=center;spacingLeft=20;align=center;verticalAlign=middle;whiteSpace=wrap;labelPosition=center;verticalLabelPosition=middle;fillColor=#dae8fc;strokeColor=#6c8ebf;" parent="1" vertex="1">
          <mxGeometry x="621.5" y="840" width="110" height="50" as="geometry" />
        </mxCell>
        <mxCell id="2LXU_3X6bgzTIwt-wgfQ-2" value="JCYW-06&#xa;授权管理配置" style="shape=module;align=center;spacingLeft=20;align=center;verticalAlign=middle;whiteSpace=wrap;labelPosition=center;verticalLabelPosition=middle;fillColor=#dae8fc;strokeColor=#6c8ebf;" parent="1" vertex="1">
          <mxGeometry x="754.5" y="840" width="110" height="50" as="geometry" />
        </mxCell>
        <mxCell id="2LXU_3X6bgzTIwt-wgfQ-3" value="JCYW-07&#xa;消息管理组件" style="shape=module;align=center;spacingLeft=20;align=center;verticalAlign=middle;whiteSpace=wrap;labelPosition=center;verticalLabelPosition=middle;fillColor=#dae8fc;strokeColor=#6c8ebf;" parent="1" vertex="1">
          <mxGeometry x="888.5" y="840" width="110" height="50" as="geometry" />
        </mxCell>
        <mxCell id="2LXU_3X6bgzTIwt-wgfQ-4" value="JCYW-08&#xa;算法分析组件" style="shape=module;align=center;spacingLeft=20;align=center;verticalAlign=middle;whiteSpace=wrap;labelPosition=center;verticalLabelPosition=middle;fillColor=#dae8fc;strokeColor=#6c8ebf;" parent="1" vertex="1">
          <mxGeometry x="1018.5" y="840" width="110" height="50" as="geometry" />
        </mxCell>
      </root>
    </mxGraphModel>
  </diagram>
</mxfile>
